<?xml version="1.0" standalone="no"?><!DOCTYPE svg PUBLIC "-//W3C//DTD SVG 1.1//EN" "http://www.w3.org/Graphics/SVG/1.1/DTD/svg11.dtd"><svg t="1656767882873" class="icon" viewBox="0 0 1024 1024" version="1.1" xmlns="http://www.w3.org/2000/svg" p-id="15726" width="32" height="32" xmlns:xlink="http://www.w3.org/1999/xlink"><defs><style type="text/css"></style></defs><path d="M537.6 740.4544a15.36 15.36 0 0 1-14.848-11.4176l-44.0832-166.2976-51.6096 17.8176a15.36 15.36 0 0 1-20.0704-17.7152l56.32-267.1104a15.36 15.36 0 0 1 14.9504-12.1856 15.36 15.36 0 0 1 14.9504 11.9808l35.84 160.0512 61.44-18.4832a15.36 15.36 0 0 1 19.4048 17.8688L552.96 728.2688a15.36 15.36 0 0 1-14.6432 12.1856zM489.4208 527.36a15.0016 15.0016 0 0 1 7.2192 1.8432 15.36 15.36 0 0 1 7.6288 9.5744l31.8464 120.0128 39.1168-184.9344-52.6336 15.7696a15.36 15.36 0 0 1-19.4048-11.3664l-24.064-107.52L442.8288 542.72l41.5744-14.336a15.36 15.36 0 0 1 5.0176-1.024zM652.544 685.1584a13.824 13.824 0 0 1-3.2256-0.3584 15.36 15.36 0 0 1-11.8272-18.2272l67.6864-315.5968a15.36 15.36 0 0 1 30.0544 6.4512l-67.6864 315.5968a15.36 15.36 0 0 1-15.0016 12.1344zM894.2592 555.52a15.616 15.616 0 0 1-3.072-0.3072 15.36 15.36 0 0 1-11.9808-18.0736l11.3664-56.32a15.36 15.36 0 1 1 30.1056 6.0416l-11.3664 56.32a15.36 15.36 0 0 1-15.0528 12.3392zM772.1984 618.24a16.5376 16.5376 0 0 1-3.4816-0.4096 15.36 15.36 0 0 1-11.4688-18.432l41.8816-181.7088a15.36 15.36 0 1 1 29.952 6.912l-41.9328 181.7088a15.36 15.36 0 0 1-14.9504 11.9296zM303.8208 685.1584a13.824 13.824 0 0 1-3.2256-0.3584 15.36 15.36 0 0 1-11.8272-18.2272l67.6864-315.5968a15.36 15.36 0 0 1 30.0544 6.4512l-67.6864 315.5968a15.36 15.36 0 0 1-15.0016 12.1344zM118.3744 555.52a15.616 15.616 0 0 1-3.072-0.3072 15.36 15.36 0 0 1-11.9808-18.0736l11.3664-56.32a15.36 15.36 0 1 1 30.1056 6.0416l-11.3664 56.32a15.36 15.36 0 0 1-15.0528 12.3392zM209.92 618.24a16.1792 16.1792 0 0 1-3.4816-0.4096 15.36 15.36 0 0 1-11.52-18.432l41.9328-181.7088a15.36 15.36 0 1 1 29.9008 6.912l-41.8816 181.7088a15.36 15.36 0 0 1-14.9504 11.9296z" fill="#ec4141" p-id="15727"></path></svg>