<?xml version="1.0" standalone="no"?><!DOCTYPE svg PUBLIC "-//W3C//DTD SVG 1.1//EN" "http://www.w3.org/Graphics/SVG/1.1/DTD/svg11.dtd"><svg t="1656767719621" class="icon" viewBox="0 0 1025 1024" version="1.1" xmlns="http://www.w3.org/2000/svg" p-id="13780" width="32.03125" height="32" xmlns:xlink="http://www.w3.org/1999/xlink"><defs><style type="text/css"></style></defs><path d="M512.61025 48.820024a463.790226 463.790226 0 1 0 463.790227 463.790226A463.790226 463.790226 0 0 0 512.61025 48.820024z m0 854.350417a390.560191 390.560191 0 1 1 390.560191-390.560191 390.560191 390.560191 0 0 1-390.560191 390.560191z m0-592.675089a226.769011 226.769011 0 0 0-227.501311 226.28081v122.05006A56.631228 56.631228 0 0 0 341.740167 713.504648h28.315614a56.631228 56.631228 0 0 0 56.875327-56.387127v-84.946842a56.631228 56.631228 0 0 0-56.875327-56.387127h-43.205721a186.980691 186.980691 0 0 1 371.520381 0h-43.449821a56.631228 56.631228 0 0 0-56.875328 56.387127v84.946842a56.631228 56.631228 0 0 0 56.875328 56.387127H683.480334a56.387128 56.387128 0 0 0 56.631227-56.387127v-122.05006A226.769011 226.769011 0 0 0 512.61025 309.274851z" p-id="13781" fill="#ec4141"></path></svg>