<?xml version="1.0" standalone="no"?><!DOCTYPE svg PUBLIC "-//W3C//DTD SVG 1.1//EN" "http://www.w3.org/Graphics/SVG/1.1/DTD/svg11.dtd"><svg t="1655729927537" class="icon" viewBox="0 0 1024 1024" version="1.1" xmlns="http://www.w3.org/2000/svg" p-id="11528" width="32" height="32" xmlns:xlink="http://www.w3.org/1999/xlink"><defs><style type="text/css"></style></defs><path d="M459.306667 594.986667l-45.44-45.226667a160.426667 160.426667 0 0 1 0-226.346667l135.893333-135.68a159.786667 159.786667 0 0 1 226.133333 0l60.373334 60.373334a159.786667 159.786667 0 0 1 0 226.133333l-75.306667 75.52a32.213333 32.213333 0 0 1-45.226667 0 31.786667 31.786667 0 0 1 0-45.226667l75.306667-75.52a95.786667 95.786667 0 0 0 0-135.68l-60.373333-60.373333a95.786667 95.786667 0 0 0-135.68 0l-135.68 135.68a96 96 0 0 0 0 135.893333l45.226666 45.226667a32 32 0 0 1-45.226666 45.226667z" fill="#737373" p-id="11529"></path><path d="M248.106667 836.266667L187.733333 775.893333a159.786667 159.786667 0 0 1 0-226.133333l75.306667-75.52a32.213333 32.213333 0 0 1 45.226667 0 31.786667 31.786667 0 0 1 0 45.226667l-75.306667 75.52a95.786667 95.786667 0 0 0 0 135.68l60.373333 60.373333a95.786667 95.786667 0 0 0 135.68 0l135.68-135.68a96 96 0 0 0 0-135.893333l-45.226666-45.226667a32.213333 32.213333 0 0 1 0-45.226667 31.786667 31.786667 0 0 1 45.226666 0l45.44 45.226667a160.426667 160.426667 0 0 1 0 226.346667l-135.893333 135.68a159.786667 159.786667 0 0 1-226.133333 0z" fill="#737373" p-id="11530"></path></svg>