<?xml version="1.0" standalone="no"?><!DOCTYPE svg PUBLIC "-//W3C//DTD SVG 1.1//EN" "http://www.w3.org/Graphics/SVG/1.1/DTD/svg11.dtd"><svg t="1656767757921" class="icon" viewBox="0 0 1024 1024" version="1.1" xmlns="http://www.w3.org/2000/svg" p-id="14108" width="32" height="32" xmlns:xlink="http://www.w3.org/1999/xlink"><defs><style type="text/css"></style></defs><path d="M385.7825189 533.3598811c-8.73813333 5.33996999 18.93262222 13.1072 26.69985109 17.47626667 7.76723001 4.36906667 26.69985223 8.2526811 26.69985223 8.25268224l63.59419221 3.88361444 37.86524445-1.45635556s68.93416334-3.39816334 98.06127445-12.62174777c29.61256334-9.70903666 25.24349667-20.87443001 25.24349668-20.87443001l-50.97244444-9.22358556H512l-23.78714112 1.45635555-19.90352555-1.45635555h-5.33996999l-18.93262222 4.8545189s-0.48545223 0.97090333-16.50536334 3.88361443c-15.04900779 3.88361443-33.01072555 0.48545223-41.74885888 5.82542222z" fill="#ec4141" p-id="14109"></path><path d="M292.57576334 537.72894777c-8.73813333-17.9617189 29.61256334 1.45635555 36.40888889 5.82542222 6.79632555 4.36906667 88.83768889 76.70139221 192.72438443 70.3905189 103.88669667-5.82542222 169.42269667-63.10874112 181.07354112-70.3905189 11.65084445-7.28177778 50.97244445-20.87443001 41.26340779-5.82542222-9.70903666 15.04900779-97.57582222 151.94643001-231.56053334 151.94643001S300.82844445 555.69066667 292.57576334 537.72894777zM514.91271111 456.65848889h-0.97090332c-31.0689189 0-51.94334777 23.78714112-100.00308224 43.20521444-48.05973333 19.41807445-130.10109667 0.97090333-147.09191112-16.50536221s-16.01991111-45.14702222 6.31087446-53.88515555c22.33078557-8.73813333 112.62483001-30.09801443 132.52835556-59.71057778s54.37060779-37.86524445 72.33232554-37.86524445h1.94180779c13.59265223 0 26.2144 5.82542222 35.92343665 15.04900665 9.70903666-9.22358557 21.84533333-15.04900779 35.9234378-15.04900665h1.94180665c17.9617189 0 55.34151111 3.88361443 75.24503779 33.01072555 19.41807445 29.61256334 105.34305223 64.07964445 133.98471112 69.41961444 28.64165888 5.33996999 31.0689189 36.89434112 4.36906666 58.73967445-26.69985223 21.3598811-101.45943666 26.2144-149.51917112 6.79632555-48.05973333-19.41807445-68.93416334-43.20521443-100.00308111-43.20521444h-2.91271111z" fill="#ec4141" p-id="14110"></path><path d="M628.02299221 602.29404445c0 0.48545223-0.97090333 0.97090333-1.45635555 1.94180778l-5.33996999 5.33996999c-6.31087445 5.33996999-14.07810333 10.67994112-23.30168889 16.01991111-18.93262222 10.19448889-41.74885888 17.9617189-68.44871111 21.3598811-33.01072555 4.36906667-66.50690333-2.91271111-97.57582222-18.44716998-8.73813333-4.36906667-16.50536334-8.73813333-23.78714112-13.59265224-2.42725888-1.45635555-4.36906667-2.91271111-6.31087332-4.36906666-0.97090333-0.97090333-1.94180779-1.45635555-1.94180779-1.45635556-1.45635555-1.45635555-3.88361443-0.97090333-5.33996999 0.48545223s-0.97090333 3.88361443 0.4854511 5.33996999c0.48545223 0.48545223 1.45635555 0.97090333 2.42726001 1.94180779 1.94180779 1.45635555 4.36906667 2.91271111 6.79632555 4.8545189 7.28177778 4.8545189 15.53445888 9.70903666 24.27259221 14.07810332 32.52527445 16.01991111 66.99235555 23.78714112 101.4594378 18.93262223 27.67075555-3.88361443 51.45789667-11.65084445 70.87596999-22.33078557 9.70903666-5.33996999 17.9617189-11.16539221 24.75804444-16.99081443 3.88361443-3.39816334 6.79632555-6.31087445 7.76723001-7.76723002 1.45635555-1.45635555 0.97090333-3.88361443-0.48545223-5.33996998-0.97090333-1.94180779-3.39816334-1.45635555-4.8545189 0z" fill="#ec4141" p-id="14111"></path><path d="M778.02761443 426.07502222c-4.8545189-1.94180779-50.00154112-15.53445888-65.05054776-21.3598811-33.01072555-12.13629667-55.34151111-25.24349667-65.05054777-39.80705223-19.90352555-30.09801443-55.82696334-45.63247445-87.38133333-45.63247446h-1.94180779c-15.53445888 0-30.09801443 5.82542222-41.74885888 16.01991112-11.65084445-10.19448889-26.2144-16.01991111-41.74886002-16.01991112h-1.94180665c-31.55436999 0-67.47780779 15.53445888-87.38133333 45.63247446-9.70903666 14.56355555-32.03982222 27.67075555-65.05054891 39.80705223-15.04900779 5.82542222-60.19603001 19.41807445-65.05054777 21.3598811-27.67075555 10.67994112-30.58346667 45.63247445-8.2526811 68.93416335 4.8545189 4.8545189 12.13629667 10.19448889 21.3598811 15.04900664 4.8545189 35.92343666 36.40888889 81.07045888 82.04136335 117.47934891 49.51608889 39.3216 108.25576334 63.10874112 163.59727331 63.10873998 55.82696334 0 116.50844445-24.27259221 167.96634112-64.07964444 47.08883001-36.40888889 80.09955555-81.55591111 84.95407445-116.99389554 8.2526811-4.36906667 15.53445888-9.22358557 19.90352555-14.07810446 21.3598811-23.78714112 18.44716999-58.73967445-9.22358557-69.41961444z m-218.45333333-99.51763001z m117.47934891 293.69837113c-50.00154112 38.83614777-109.7121189 62.62328889-163.59727446 62.62328889-53.39970333 0-110.68302222-23.30168889-158.74275555-61.65238556-42.23431111-33.49617778-71.84687445-74.27413333-78.6432-107.77031112 10.19448889 4.36906667 21.3598811 8.73813333 33.49617778 11.65084445 7.76723001 1.94180779 15.53445888 3.39816334 23.30168889 4.36906667 39.80705223 39.80705223 112.13937778 65.536 184.47170332 65.536 71.84687445 0 144.1792-25.72894777 183.98625223-65.05054777l-0.48545223-0.48545223c7.76723001-0.97090333 15.53445888-2.42725888 23.30168889-4.36906667 12.62174777-2.91271111 24.27259221-7.28177778 34.46708224-12.13629667-7.28177778 32.52527445-37.86524445 73.7886811-81.55591111 107.28486001z m-238.84231111-104.8576c4.36906667 0 7.28177778-1.94180779 9.22358443-4.36906667 1.45635555 3.39816334 3.88361443 5.82542222 7.76723 5.82542223h47.5742811c3.88361443 0 6.31087445-1.94180779 8.25268224-6.31087445 1.45635555 3.39816334 3.39816334 5.33996999 6.31087332 5.33996998h47.57428224c3.88361443 0 6.79632555-1.94180779 8.73813334-4.85451776 1.45635555 2.91271111 3.88361443 4.8545189 7.28177777 4.85451776h36.89433999c5.33996999 2.42725888 10.19448889 4.8545189 15.53446001 6.79632669 16.99081443 6.79632555 36.40888889 9.22358557 56.31241444 8.2526811-16.01991111 14.07810333-36.89434112 26.2144-60.19603001 35.92343666h-33.01072555c-3.39816334 0-5.82542222 1.94180779-7.28177777 5.33997113-1.94180779-1.45635555-3.88361443-1.94180779-6.31087446-1.94180779h-34.4670811c-2.91271111 0-4.8545189 1.45635555-6.31087446 4.36906667-1.94180779-2.42725888-4.36906667-3.88361443-7.76722886-3.88361444h-19.90352669c2.42725888-10.67994112 6.31087445-18.93262222 10.67994112-25.7289489 3.39816334-4.8545189 6.31087445-8.2526811 9.70903666-10.67993998 1.94180779-1.45635555 3.39816334-1.94180779 3.88361557-2.42726002 1.94180779-0.48545223 2.91271111-2.91271111 2.42725888-4.36906667-0.48545223-1.94180779-2.91271111-2.91271111-4.36906666-2.42725888-4.8545189 1.45635555-11.16539221 6.31087445-17.47626667 16.01991111-4.8545189 7.28177778-8.73813333 16.99081443-11.65084445 28.64165888v0.97090446h-6.79632554c-2.91271111 0-4.8545189 1.45635555-6.31087446 3.88361444-1.94180779-2.42725888-4.36906667-3.88361443-7.28177778-3.88361444h-33.98163c-2.42725888 0-4.36906667 0.97090333-6.31087332 2.91271112-1.94180779-4.8545189-5.33996999-7.76723001-10.67994112-7.76723002h-34.4670811v0.97090333c-22.33078557-9.22358557-41.74885888-20.87443001-57.2833189-34.4670811 19.41807445 0.97090333 38.35069667-1.45635555 55.34151111-8.25268111 5.33996999-1.94180779 10.19448889-4.36906667 15.53445888-6.79632668h10.19448889c4.36906667-1.94180779 7.76723001-1.94180779 12.62174891-1.94180665z m-8.25268224-7.28177777c3.39816334-1.94180779 7.76723001-4.36906667 12.62174891-6.79632669v1.94180779c-0.48545223 3.39816334-1.45635555 4.8545189-4.36906667 4.8545189h-8.25268224z m22.33078556-12.13629668c14.07810333-7.76723001 29.61256334-16.01991111 35.92343666-18.44716999 6.31087445-2.42725888 11.65084445-3.88361443 18.44717113-4.8545189v0.97090333c0.48545223 5.82542222 0.48545223 11.16539221 0.48545109 16.50536334-0.48545223 11.65084445-2.42725888 18.93262222-3.88361443 18.93262222h-47.5742811c-0.48545223 0-1.94180779-2.42725888-2.42726002-7.28177778-0.97090333-1.94180779-0.97090333-3.88361443-0.97090333-5.82542222z m64.07964445 7.76723001c-0.97090333-3.88361443-1.45635555-8.73813333-1.94180779-15.04900779-0.48545223-4.8545189-0.48545223-9.70903666-0.97090333-15.04900778v-1.94180666h3.88361444c9.22358557 0 17.47626667 1.94180779 27.18530446 5.33997 4.36906667 1.94180779 14.56355555 6.79632555 25.24349554 12.62174776v9.22358557c-0.48545223 5.82542222-2.42725888 8.73813333-4.85451776 8.73813333h-47.08883001c-0.48545223-0.48545223-0.97090333-1.94180779-1.45635555-3.88361443z m61.16693333-9.22358557c9.70903666 5.33996999 19.41807445 10.67994112 25.24349667 13.59265224h-21.84533333c-0.48545223 0-1.94180779-2.91271111-2.91271111-8.73813334-0.48545223-1.45635555-0.48545223-3.39816334-0.48545223-4.8545189zM449.86216334 579.96325888c0.97090333-2.42725888 2.42725888-3.39816334 2.91271111-3.39816221h33.98162888c1.45635555 0 2.91271111 2.91271111 3.88361557 8.73813334 0 0.48545223 0 0.97090333 0.48545109 1.45635556-14.07810333-1.45635555-28.15620779-3.39816334-41.26340665-6.79632669z m48.54518443 7.28177778s0-0.48545223 0 0v-2.91271111c0.48545223-2.91271111 0.97090333-5.33996999 1.45635556-6.79632555 0.48545223-0.97090333 0.48545223-0.97090333 0-0.97090333h34.46708224c1.45635555 0 2.91271111 2.91271111 4.36906666 8.25268111 0 0.48545223 0.48545223 1.45635555 0.4854511 2.42725888-7.28177778 0.48545223-14.56355555 0.97090333-22.33078443 0.97090446-6.31087445-0.48545223-12.13629667-0.48545223-18.44717113-0.97090446z m48.54518556-0.97090333v-1.45635555c0.48545223-2.91271111 0.48545223-5.33996999 1.45635556-6.79632555 0-0.48545223 0.48545223-0.97090333 0.48545223-0.97090446h33.49617778c1.94180779 0 2.91271111 0.97090333 3.3981622 3.39816334-12.62174777 2.42725888-25.72894777 4.36906667-38.83614777 5.82542222z m62.13783666-12.62174776l-14.56355556 4.36906666c0.48545223-1.45635555 0.97090333-2.91271111 0.97090447-3.39816334l0.48545109-0.48545223c5.82542222-0.48545223 9.70903666-0.48545223 13.1072-0.48545109z m-168.93724444 4.36906666c-7.28177778-1.94180779-14.56355555-3.88361443-21.84533334-6.31087445h16.99081558c1.94180779 0 3.39816334 0.97090333 3.88361443 3.39816334 0.97090333 0.48545223 0.97090333 1.94180779 0.97090333 2.91271111z m340.7872-88.3522378c-3.39816334 3.39816334-8.2526811 7.28177778-14.07810333 10.67994112l-4.36906667 2.42725888c-11.16539221 6.31087445-25.72894777 11.65084445-40.77795555 15.53446002-30.58346667 7.76723001-61.16693333 7.28177778-85.92497778-2.42726002-8.73813333-3.39816334-16.99081443-7.28177778-25.24349667-11.65084444-7.28177778-3.88361443-51.45789667-28.64165888-63.10873998-33.01072554-10.19448889-3.88361443-19.41807445-5.82542222-30.58346667-5.82542223h-1.94180779c-10.19448889 0-19.41807445 1.94180779-29.61256334 5.82542223-11.65084445 4.36906667-55.82696334 29.61256334-63.10873998 33.01072554-8.2526811 4.36906667-16.50536334 7.76723001-25.24349668 11.65084444-24.75804445 9.70903666-55.34151111 10.19448889-85.92497778 2.42726002-25.72894777-6.31087445-49.03063666-17.9617189-59.22512554-28.64166002-18.93262222-19.41807445-16.50536334-48.05973333 5.82542222-56.79786666 4.36906667-1.94180779 49.51608889-15.53445888 65.05054777-21.3598811 34.4670811-12.62174777 57.76876999-26.2144 68.44871111-42.71976334 18.44716999-27.67075555 52.4288-42.23431111 81.55591111-42.23431112h1.94180779c14.56355555 0 28.15620779 5.82542222 39.3216 16.50536334l2.42725888 2.42725888 2.42725888-2.42725888c10.67994112-10.67994112 24.75804445-16.50536334 39.3216-16.50536334h1.94180778c29.12711111 0 63.10874112 14.56355555 81.55591112 42.23431112 10.67994112 16.50536334 34.4670811 30.09801443 68.4487111 42.71976334 15.53445888 5.82542222 60.6814811 19.41807445 65.05054778 21.3598811 22.33078557 8.73813333 24.75804445 37.37979221 5.82542222 56.79786666z" fill="#ec4141" p-id="14112"></path></svg>