<?xml version="1.0" standalone="no"?><!DOCTYPE svg PUBLIC "-//W3C//DTD SVG 1.1//EN" "http://www.w3.org/Graphics/SVG/1.1/DTD/svg11.dtd"><svg t="1655556802141" class="icon" viewBox="0 0 1024 1024" version="1.1" xmlns="http://www.w3.org/2000/svg" p-id="15867" xmlns:xlink="http://www.w3.org/1999/xlink" width="32" height="32"><defs><style type="text/css"></style></defs><path d="M896 877.226667h-768c-51.2 0-93.866667-42.666667-93.866667-93.866667V240.64c0-51.2 42.666667-93.866667 93.866667-93.866667h768c51.2 0 93.866667 42.666667 93.866667 93.866667v542.72c0 51.2-42.666667 93.866667-93.866667 93.866667z m-768-679.253334c-23.893333 0-42.666667 18.773333-42.666667 42.666667v542.72c0 23.893333 18.773333 42.666667 42.666667 42.666667h768c23.893333 0 42.666667-18.773333 42.666667-42.666667V240.64c0-23.893333-18.773333-42.666667-42.666667-42.666667h-768z" fill="#ffffff" p-id="15868"></path><path d="M512 537.6c-5.12 0-10.24-1.706667-15.36-5.12l-426.666667-320.853333c-11.946667-8.533333-13.653333-23.893333-5.12-35.84 8.533333-11.946667 23.893333-13.653333 35.84-5.12L512 481.28l411.306667-308.906667c11.946667-8.533333 27.306667-6.826667 35.84 5.12s6.826667 27.306667-5.12 35.84l-426.666667 320.853334c-5.12 1.706667-10.24 3.413333-15.36 3.413333z" fill="#ffffff" p-id="15869"></path></svg>