<?xml version="1.0" standalone="no"?><!DOCTYPE svg PUBLIC "-//W3C//DTD SVG 1.1//EN" "http://www.w3.org/Graphics/SVG/1.1/DTD/svg11.dtd"><svg t="1655728465804" class="icon" viewBox="0 0 1024 1024" version="1.1" xmlns="http://www.w3.org/2000/svg" p-id="3181" width="32" height="32" xmlns:xlink="http://www.w3.org/1999/xlink"><defs><style type="text/css"></style></defs><path d="M940 308.73l-156-184.9c-13.88-16.43-34.17-25.86-55.69-25.86H295.89c-21.53 0-41.83 9.44-55.7 25.87L84.21 308.72C62 335.03 61.34 373.75 82.64 400.8l402.72 511.46c1.81 2.61 4.03 5 6.65 7.07a32.344 32.344 0 0 0 20.06 6.95c9.61 0 19.13-4.25 25.53-12.39l403.96-513.1c21.29-27.03 20.64-65.75-1.56-92.06z m-49.46 51.9L512.12 841.29 133.66 360.63c-2.33-2.95-2.25-7.17 0.17-10.03l156-184.9c1.5-1.78 3.71-2.8 6.06-2.8h432.42c2.35 0 4.57 1.03 6.07 2.81L890.37 350.6c2.42 2.87 2.49 7.09 0.17 10.03z" fill="#737373" p-id="3182"></path><path d="M661.94 202.82l-90.71 12.38c-30.35 5.35-52.38 31.59-52.38 62.41v170.87c-25.11-7.93-53.57-7.52-80.59 2.42-59.65 21.98-93.97 81.89-76.49 133.52 7.72 22.84 24.59 41.45 47.53 52.42 14.93 7.13 31.7 10.73 48.97 10.73 15.11 0 30.61-2.75 45.58-8.27 53.57-19.74 86.35-69.99 79.93-117.4V279l86.93-11.84c17.77-2.42 30.21-18.78 27.79-36.56-2.43-17.76-18.76-30.2-36.56-27.78zM481.4 578.36c-15.52 5.73-32 5.67-44.09-0.11-4.95-2.37-11.38-6.82-14.03-14.64-6.09-17.99 11.39-42.19 37.43-51.78 7.72-2.84 15.67-4.27 23.2-4.27 7.64 0 14.84 1.46 20.93 4.38 4.93 2.36 11.36 6.81 14 14.65 0.26 0.76 0.24 1.59 0.41 2.37 0.16 1.34 0.36 2.65 0.68 3.93 0.86 16.97-15.42 36.96-38.53 45.47z" fill="#737373" p-id="3183"></path></svg>