<?xml version="1.0" standalone="no"?><!DOCTYPE svg PUBLIC "-//W3C//DTD SVG 1.1//EN" "http://www.w3.org/Graphics/SVG/1.1/DTD/svg11.dtd"><svg t="1656767823457" class="icon" viewBox="0 0 1024 1024" version="1.1" xmlns="http://www.w3.org/2000/svg" p-id="15314" width="32" height="32" xmlns:xlink="http://www.w3.org/1999/xlink"><defs><style type="text/css"></style></defs><path d="M314.243386 614.038801l-50.567901 74.045855s-7.223986 39.731922 10.835979 57.791887c19.865961 19.865961 90.299824 10.835979 90.299823 10.835979l30.701941-39.731922c0 1.805996-86.687831-68.627866-81.269842-102.941799zM742.26455 278.123457c-57.791887-57.791887-151.703704-57.791887-211.301587 0-57.791887 57.791887-57.791887 151.703704 0 211.301587s151.703704 57.791887 211.301587 0c57.791887-59.597884 57.791887-153.5097 0-211.301587zM621.262787 343.13933a59.959083 59.959083 0 0 1 0-84.881834c23.477954-23.477954 61.40388-23.477954 84.881834 0s23.477954 61.40388 0 84.881834a59.959083 59.959083 0 0 1-84.881834 0z" fill="#ec4141" p-id="15315"></path><path d="M326.885362 785.608466c-21.671958 0-43.343915-9.029982-59.597884-25.283951-30.70194-30.70194-32.507937-81.269841-5.417989-115.583774l169.763668-198.659612c7.223986-7.223986 18.059965-9.029982 25.283951-1.805997 7.223986 7.223986 9.029982 18.059965 1.805996 25.283951L288.959436 668.218695c-16.253968 19.865961-16.253968 48.761905 1.805996 66.821869s46.955908 19.865961 66.82187 1.805997l252.839506-214.91358c7.223986-7.223986 19.865961-5.417989 25.28395 1.805996 7.223986 7.223986 5.417989 19.865961-1.805996 25.283951l-252.839506 214.91358c-14.447972 14.447972-34.313933 21.671958-54.179894 21.671958z" fill="#ec4141" p-id="15316"></path><path d="M639.322751 550.828924c-41.537919 0-83.075838-16.253968-115.583774-46.955908-63.209877-63.209877-63.209877-166.151675 0-231.167549 30.70194-30.70194 72.239859-46.955908 115.583774-46.955908s84.881834 16.253968 115.583775 46.955908c63.209877 63.209877 63.209877 166.151675 0 231.167549-30.70194 30.70194-74.045855 46.955908-115.583775 46.955908z m0-290.765432c-34.313933 0-65.015873 12.641975-90.299823 37.925926s-37.925926 55.985891-37.925926 90.299824 12.641975 65.015873 37.925926 90.299823c48.761905 48.761905 130.031746 48.761905 178.79365 0 23.477954-23.477954 37.925926-55.985891 37.925926-90.299823s-12.641975-65.015873-37.925926-90.299824-54.179894-37.925926-88.493827-37.925926z" fill="#ec4141" p-id="15317"></path><path d="M742.26455 507.485009c-1.805996 0-5.417989 0-7.223986-1.805997-34.313933-16.253968-66.821869-36.119929-95.717813-59.597883-7.223986-7.223986-9.029982-18.059965-1.805996-25.283951 7.223986-7.223986 18.059965-9.029982 25.28395-1.805996 27.089947 21.671958 55.985891 39.731922 88.493828 54.179894 9.029982 3.611993 12.641975 14.447972 9.029982 23.477954-3.611993 7.223986-10.835979 10.835979-18.059965 10.835979zM608.620811 411.767196c-5.417989 0-9.029982-1.805996-12.641975-5.41799-7.223986-7.223986-14.447972-16.253968-21.671958-25.28395-5.417989-7.223986-5.417989-19.865961 3.611993-25.283951 7.223986-5.417989 19.865961-5.417989 25.283951 3.611993 5.417989 7.223986 12.641975 14.447972 19.865961 23.477954 7.223986 7.223986 5.417989 18.059965-1.805996 25.283951-3.611993 1.805996-7.223986 3.611993-12.641976 3.611993zM561.664903 348.557319c-5.417989 0-12.641975-3.611993-16.253968-9.029982-18.059965-28.895944-25.283951-48.761905-25.283951-50.567901-3.611993-9.029982 1.805996-19.865961 10.835979-23.477955 9.029982-3.611993 19.865961 1.805996 23.477954 10.835979 0 0 7.223986 18.059965 21.671958 43.343916 5.417989 9.029982 1.805996 19.865961-5.41799 25.28395-1.805996 3.611993-5.417989 3.611993-9.029982 3.611993zM465.94709 601.396825c-5.417989 0-9.029982-1.805996-12.641975-5.417989-7.223986-7.223986-7.223986-18.059965 0-25.283951l37.925926-37.925926c7.223986-7.223986 18.059965-7.223986 25.28395 0s7.223986 18.059965 0 25.283951L478.589065 595.978836c-3.611993 3.611993-7.223986 5.417989-12.641975 5.417989zM406.349206 733.234568h-3.611993c-84.881834-19.865961-108.359788-106.553792-110.165784-110.165785-1.805996-9.029982 3.611993-19.865961 12.641975-21.671958 9.029982-1.805996 19.865961 3.611993 21.671958 12.641976 0 3.611993 19.865961 68.627866 83.075837 83.075837 9.029982 1.805996 16.253968 12.641975 12.641976 21.671958 0 9.029982-9.029982 14.447972-16.253969 14.447972z" fill="#ec4141" p-id="15318"></path><path d="M238.391534 807.280423c-5.417989 0-9.029982-1.805996-12.641975-5.417989-7.223986-7.223986-7.223986-18.059965 0-25.283951l43.343915-43.343915c7.223986-7.223986 18.059965-7.223986 25.283951 0s7.223986 18.059965 0 25.283951l-43.343915 43.343915c-3.611993 3.611993-9.029982 5.417989-12.641976 5.417989z" fill="#ec4141" p-id="15319"></path></svg>